<mxfile host="app.diagrams.net" agent="Mozilla/5.0 (Windows NT 10.0; Win64; x64) AppleWebKit/537.36 (KHTML, like Gecko) Chrome/134.0.0.0 Safari/537.36 Edg/134.0.0.0" version="26.1.0">
  <diagram name="第 1 页" id="TZFuUK252T7A37Ij6whs">
    <mxGraphModel dx="1042" dy="573" grid="1" gridSize="10" guides="1" tooltips="1" connect="1" arrows="1" fold="1" page="1" pageScale="1" pageWidth="827" pageHeight="1169" math="0" shadow="0">
      <root>
        <mxCell id="0" />
        <mxCell id="1" parent="0" />
        <mxCell id="YTZnSgjd3nYbgK_upiZN-1" value="&lt;font style=&quot;font-size: 20px;&quot;&gt;数据集构建&lt;/font&gt;" style="rounded=0;whiteSpace=wrap;html=1;fillColor=#ffe6cc;strokeColor=#d79b00;" vertex="1" parent="1">
          <mxGeometry x="60" width="50" height="260" as="geometry" />
        </mxCell>
        <mxCell id="YTZnSgjd3nYbgK_upiZN-2" value="&lt;font style=&quot;font-size: 20px;&quot;&gt;多模态智能监测&lt;/font&gt;" style="rounded=0;whiteSpace=wrap;html=1;fillColor=#ffe6cc;strokeColor=#d79b00;" vertex="1" parent="1">
          <mxGeometry x="60" y="280" width="50" height="630" as="geometry" />
        </mxCell>
        <mxCell id="YTZnSgjd3nYbgK_upiZN-4" value="&lt;font style=&quot;font-size: 20px;&quot;&gt;智能诊断&lt;/font&gt;" style="rounded=0;whiteSpace=wrap;html=1;fillColor=#ffe6cc;strokeColor=#d79b00;" vertex="1" parent="1">
          <mxGeometry x="60" y="940" width="50" height="220" as="geometry" />
        </mxCell>
        <mxCell id="YTZnSgjd3nYbgK_upiZN-13" style="edgeStyle=orthogonalEdgeStyle;rounded=0;orthogonalLoop=1;jettySize=auto;html=1;entryX=0.547;entryY=0.015;entryDx=0;entryDy=0;entryPerimeter=0;" edge="1" parent="1" target="YTZnSgjd3nYbgK_upiZN-14">
          <mxGeometry relative="1" as="geometry">
            <mxPoint x="250" y="220" as="targetPoint" />
            <mxPoint x="220" y="90" as="sourcePoint" />
            <Array as="points">
              <mxPoint x="220" y="130" />
              <mxPoint x="438" y="130" />
              <mxPoint x="438" y="181" />
            </Array>
          </mxGeometry>
        </mxCell>
        <mxCell id="YTZnSgjd3nYbgK_upiZN-8" value="人工目视解译" style="rounded=1;whiteSpace=wrap;html=1;fillColor=#dae8fc;strokeColor=#6c8ebf;" vertex="1" parent="1">
          <mxGeometry x="160" y="40" width="120" height="60" as="geometry" />
        </mxCell>
        <mxCell id="YTZnSgjd3nYbgK_upiZN-19" style="edgeStyle=orthogonalEdgeStyle;rounded=0;orthogonalLoop=1;jettySize=auto;html=1;entryX=0.5;entryY=0;entryDx=0;entryDy=0;" edge="1" parent="1" source="YTZnSgjd3nYbgK_upiZN-9" target="YTZnSgjd3nYbgK_upiZN-14">
          <mxGeometry relative="1" as="geometry">
            <Array as="points">
              <mxPoint x="380" y="130" />
              <mxPoint x="440" y="130" />
            </Array>
          </mxGeometry>
        </mxCell>
        <mxCell id="YTZnSgjd3nYbgK_upiZN-9" value="野外实地调查" style="rounded=1;whiteSpace=wrap;html=1;fillColor=#dae8fc;strokeColor=#6c8ebf;" vertex="1" parent="1">
          <mxGeometry x="320" y="40" width="120" height="60" as="geometry" />
        </mxCell>
        <mxCell id="YTZnSgjd3nYbgK_upiZN-16" style="edgeStyle=orthogonalEdgeStyle;rounded=0;orthogonalLoop=1;jettySize=auto;html=1;" edge="1" parent="1" source="YTZnSgjd3nYbgK_upiZN-10" target="YTZnSgjd3nYbgK_upiZN-14">
          <mxGeometry relative="1" as="geometry">
            <Array as="points">
              <mxPoint x="530" y="130" />
              <mxPoint x="440" y="130" />
            </Array>
          </mxGeometry>
        </mxCell>
        <mxCell id="YTZnSgjd3nYbgK_upiZN-10" value="高空分辨率遥感影像" style="rounded=1;whiteSpace=wrap;html=1;fillColor=#dae8fc;strokeColor=#6c8ebf;" vertex="1" parent="1">
          <mxGeometry x="470" y="40" width="120" height="60" as="geometry" />
        </mxCell>
        <mxCell id="YTZnSgjd3nYbgK_upiZN-27" style="edgeStyle=orthogonalEdgeStyle;rounded=0;orthogonalLoop=1;jettySize=auto;html=1;entryX=0.5;entryY=0;entryDx=0;entryDy=0;" edge="1" parent="1" source="YTZnSgjd3nYbgK_upiZN-11" target="YTZnSgjd3nYbgK_upiZN-14">
          <mxGeometry relative="1" as="geometry">
            <Array as="points">
              <mxPoint x="710" y="130" />
              <mxPoint x="440" y="130" />
            </Array>
          </mxGeometry>
        </mxCell>
        <mxCell id="YTZnSgjd3nYbgK_upiZN-11" value="现有侵蚀沟分布" style="rounded=1;whiteSpace=wrap;html=1;fillColor=#dae8fc;strokeColor=#6c8ebf;" vertex="1" parent="1">
          <mxGeometry x="650" y="40" width="120" height="60" as="geometry" />
        </mxCell>
        <mxCell id="YTZnSgjd3nYbgK_upiZN-14" value="高空分辨率侵蚀沟数据集" style="ellipse;whiteSpace=wrap;html=1;fillColor=#008a00;strokeColor=#005700;fontColor=#ffffff;" vertex="1" parent="1">
          <mxGeometry x="360" y="150" width="160" height="50" as="geometry" />
        </mxCell>
        <mxCell id="YTZnSgjd3nYbgK_upiZN-20" value="构建侵蚀沟多模态特征库" style="rounded=0;whiteSpace=wrap;html=1;fillColor=#d5e8d4;strokeColor=#82b366;" vertex="1" parent="1">
          <mxGeometry x="160" y="280" width="610" height="40" as="geometry" />
        </mxCell>
        <mxCell id="YTZnSgjd3nYbgK_upiZN-21" value="地形特征" style="rounded=1;whiteSpace=wrap;html=1;" vertex="1" parent="1">
          <mxGeometry x="160" y="330" width="120" height="30" as="geometry" />
        </mxCell>
        <mxCell id="YTZnSgjd3nYbgK_upiZN-22" value="光谱特征" style="rounded=1;whiteSpace=wrap;html=1;" vertex="1" parent="1">
          <mxGeometry x="400" y="330" width="120" height="30" as="geometry" />
        </mxCell>
        <mxCell id="YTZnSgjd3nYbgK_upiZN-23" value="纹理特征" style="rounded=1;whiteSpace=wrap;html=1;" vertex="1" parent="1">
          <mxGeometry x="650" y="330" width="120" height="30" as="geometry" />
        </mxCell>
        <mxCell id="YTZnSgjd3nYbgK_upiZN-25" value="" style="shape=singleArrow;direction=south;whiteSpace=wrap;html=1;" vertex="1" parent="1">
          <mxGeometry x="414" y="210" width="58" height="50" as="geometry" />
        </mxCell>
        <mxCell id="YTZnSgjd3nYbgK_upiZN-33" style="edgeStyle=orthogonalEdgeStyle;rounded=0;orthogonalLoop=1;jettySize=auto;html=1;exitX=0.5;exitY=1;exitDx=0;exitDy=0;" edge="1" parent="1">
          <mxGeometry relative="1" as="geometry">
            <mxPoint x="460" y="550" as="targetPoint" />
            <mxPoint x="230" y="490" as="sourcePoint" />
            <Array as="points">
              <mxPoint x="230" y="525" />
              <mxPoint x="461" y="525" />
            </Array>
          </mxGeometry>
        </mxCell>
        <mxCell id="YTZnSgjd3nYbgK_upiZN-28" value="坡度&lt;div&gt;坡向&lt;/div&gt;&lt;div&gt;高程&lt;/div&gt;&lt;div&gt;坡度变率&lt;/div&gt;&lt;div&gt;坡向变率&lt;/div&gt;&lt;div&gt;曲率&lt;/div&gt;&lt;div&gt;山体阴影&lt;/div&gt;" style="whiteSpace=wrap;html=1;aspect=fixed;" vertex="1" parent="1">
          <mxGeometry x="160" y="370" width="120" height="120" as="geometry" />
        </mxCell>
        <mxCell id="YTZnSgjd3nYbgK_upiZN-34" style="edgeStyle=orthogonalEdgeStyle;rounded=0;orthogonalLoop=1;jettySize=auto;html=1;" edge="1" parent="1" source="YTZnSgjd3nYbgK_upiZN-29">
          <mxGeometry relative="1" as="geometry">
            <mxPoint x="460" y="550" as="targetPoint" />
          </mxGeometry>
        </mxCell>
        <mxCell id="YTZnSgjd3nYbgK_upiZN-29" value="可见光&lt;div&gt;近红外&lt;/div&gt;" style="whiteSpace=wrap;html=1;aspect=fixed;" vertex="1" parent="1">
          <mxGeometry x="400" y="370" width="120" height="120" as="geometry" />
        </mxCell>
        <mxCell id="YTZnSgjd3nYbgK_upiZN-35" style="edgeStyle=orthogonalEdgeStyle;rounded=0;orthogonalLoop=1;jettySize=auto;html=1;" edge="1" parent="1">
          <mxGeometry relative="1" as="geometry">
            <mxPoint x="460" y="550" as="targetPoint" />
            <mxPoint x="710" y="490" as="sourcePoint" />
            <Array as="points">
              <mxPoint x="710" y="520" />
              <mxPoint x="460" y="520" />
            </Array>
          </mxGeometry>
        </mxCell>
        <mxCell id="YTZnSgjd3nYbgK_upiZN-30" value="灰度共生矩阵" style="whiteSpace=wrap;html=1;aspect=fixed;" vertex="1" parent="1">
          <mxGeometry x="650" y="370" width="120" height="120" as="geometry" />
        </mxCell>
        <mxCell id="YTZnSgjd3nYbgK_upiZN-36" value="形态参数获取" style="rounded=0;whiteSpace=wrap;html=1;fillColor=#d5e8d4;strokeColor=#82b366;" vertex="1" parent="1">
          <mxGeometry x="160" y="550" width="610" height="40" as="geometry" />
        </mxCell>
        <mxCell id="YTZnSgjd3nYbgK_upiZN-37" value="沟长" style="rounded=1;whiteSpace=wrap;html=1;" vertex="1" parent="1">
          <mxGeometry x="180" y="600" width="100" height="40" as="geometry" />
        </mxCell>
        <mxCell id="YTZnSgjd3nYbgK_upiZN-38" value="平均沟宽" style="rounded=1;whiteSpace=wrap;html=1;" vertex="1" parent="1">
          <mxGeometry x="290" y="600" width="100" height="40" as="geometry" />
        </mxCell>
        <mxCell id="YTZnSgjd3nYbgK_upiZN-39" value="平均沟深" style="rounded=1;whiteSpace=wrap;html=1;" vertex="1" parent="1">
          <mxGeometry x="415" y="600" width="100" height="40" as="geometry" />
        </mxCell>
        <mxCell id="YTZnSgjd3nYbgK_upiZN-40" value="体积" style="rounded=1;whiteSpace=wrap;html=1;" vertex="1" parent="1">
          <mxGeometry x="650" y="600" width="100" height="40" as="geometry" />
        </mxCell>
        <mxCell id="YTZnSgjd3nYbgK_upiZN-41" value="变化检测" style="rounded=0;whiteSpace=wrap;html=1;fillColor=#d5e8d4;strokeColor=#82b366;" vertex="1" parent="1">
          <mxGeometry x="160" y="670" width="610" height="40" as="geometry" />
        </mxCell>
        <mxCell id="YTZnSgjd3nYbgK_upiZN-42" value="沟头前进速率" style="rounded=1;whiteSpace=wrap;html=1;" vertex="1" parent="1">
          <mxGeometry x="210" y="720" width="100" height="40" as="geometry" />
        </mxCell>
        <mxCell id="YTZnSgjd3nYbgK_upiZN-43" value="沟壁扩张速率" style="rounded=1;whiteSpace=wrap;html=1;" vertex="1" parent="1">
          <mxGeometry x="350" y="720" width="100" height="40" as="geometry" />
        </mxCell>
        <mxCell id="YTZnSgjd3nYbgK_upiZN-44" value="沟底加深速率" style="rounded=1;whiteSpace=wrap;html=1;" vertex="1" parent="1">
          <mxGeometry x="490" y="720" width="100" height="40" as="geometry" />
        </mxCell>
        <mxCell id="YTZnSgjd3nYbgK_upiZN-45" value="" style="strokeWidth=2;html=1;shape=mxgraph.flowchart.annotation_2;align=left;labelPosition=right;pointerEvents=1;direction=north;" vertex="1" parent="1">
          <mxGeometry x="240" y="770" width="460" height="45" as="geometry" />
        </mxCell>
        <mxCell id="YTZnSgjd3nYbgK_upiZN-48" value="沟长密度、沟数密度、裂度变化" style="rounded=1;whiteSpace=wrap;html=1;" vertex="1" parent="1">
          <mxGeometry x="305" y="830" width="320" height="30" as="geometry" />
        </mxCell>
        <mxCell id="YTZnSgjd3nYbgK_upiZN-52" value="体积变化速率" style="rounded=1;whiteSpace=wrap;html=1;" vertex="1" parent="1">
          <mxGeometry x="630" y="720" width="100" height="40" as="geometry" />
        </mxCell>
        <mxCell id="YTZnSgjd3nYbgK_upiZN-53" value="统计" style="text;strokeColor=none;align=center;fillColor=none;html=1;verticalAlign=middle;whiteSpace=wrap;rounded=0;" vertex="1" parent="1">
          <mxGeometry x="420" y="800" width="60" height="30" as="geometry" />
        </mxCell>
        <mxCell id="YTZnSgjd3nYbgK_upiZN-59" value="面积" style="rounded=1;whiteSpace=wrap;html=1;" vertex="1" parent="1">
          <mxGeometry x="540" y="600" width="100" height="40" as="geometry" />
        </mxCell>
        <mxCell id="YTZnSgjd3nYbgK_upiZN-62" value="" style="shape=curlyBracket;whiteSpace=wrap;html=1;rounded=1;labelPosition=left;verticalLabelPosition=middle;align=right;verticalAlign=middle;size=0.5;direction=south;" vertex="1" parent="1">
          <mxGeometry x="312.5" y="990" width="275" height="50" as="geometry" />
        </mxCell>
        <mxCell id="YTZnSgjd3nYbgK_upiZN-64" value="判断" style="rhombus;whiteSpace=wrap;html=1;" vertex="1" parent="1">
          <mxGeometry x="387.5" y="940" width="125" height="50" as="geometry" />
        </mxCell>
        <mxCell id="YTZnSgjd3nYbgK_upiZN-65" value="稳定型沟" style="rounded=0;whiteSpace=wrap;html=1;" vertex="1" parent="1">
          <mxGeometry x="250" y="1050" width="120" height="60" as="geometry" />
        </mxCell>
        <mxCell id="YTZnSgjd3nYbgK_upiZN-66" value="发展型沟" style="rounded=0;whiteSpace=wrap;html=1;" vertex="1" parent="1">
          <mxGeometry x="530" y="1050" width="120" height="60" as="geometry" />
        </mxCell>
        <mxCell id="YTZnSgjd3nYbgK_upiZN-67" value="" style="verticalLabelPosition=bottom;verticalAlign=top;html=1;shape=mxgraph.basic.rect;fillColor2=none;strokeWidth=1;size=20;indent=5;fillStyle=cross-hatch;fillColor=none;dashed=1;dashPattern=8 8;" vertex="1" parent="1">
          <mxGeometry x="187.5" y="712.5" width="565" height="55" as="geometry" />
        </mxCell>
      </root>
    </mxGraphModel>
  </diagram>
</mxfile>
